<svg version="1.1" viewBox="0.0 0.0 1536.0 288.0" fill="none" stroke="none" stroke-linecap="square" stroke-miterlimit="10" xmlns:xlink="http://www.w3.org/1999/xlink" xmlns="http://www.w3.org/2000/svg"><clipPath id="p.0"><path d="m0 0l1536.0 0l0 288.0l-1536.0 0l0 -288.0z" clip-rule="nonzero"/></clipPath><g clip-path="url(#p.0)"><path fill="#000000" fill-opacity="0.0" d="m0 0l1536.0 0l0 288.0l-1536.0 0z" fill-rule="evenodd"/><path fill="#000000" fill-opacity="0.0" d="m357.77954 270.24408l179.47144 0c14.159912 0 25.638794 -1.8882141 25.638794 -4.2174683c0 -2.3292236 -11.478882 -4.2174683 -25.638794 -4.2174683l-51.277557 0c-14.159912 0 -25.638763 -1.8882141 -25.638763 -4.2174683c0 -2.3292542 11.478851 -4.2174835 25.638763 -4.2174835l564.0532 0c14.159912 0 25.638794 1.8882294 25.638794 4.2174835c0 2.3292542 -11.478882 4.2174683 -25.638794 4.2174683l-51.277588 0c-14.159912 0 -25.638794 1.8882446 -25.638794 4.2174683c0 2.3292542 11.478882 4.2174683 25.638794 4.2174683l179.47144 0l-102.55505 -113.58078l102.55505 -113.5808l-102.55505 0l0 -12.652424l0 0c0 -2.3292465 -11.478882 -4.217474 -25.638794 -4.217474l-564.0532 0c-14.159912 0 -25.638763 1.8882275 -25.638763 4.217474l0 12.652424l-102.555115 0l102.555115 113.5808z" fill-rule="evenodd"/><path fill="#000000" fill-opacity="0.0" d="m562.8898 266.0266c0 -2.3292236 -11.478882 -4.2174683 -25.638794 -4.2174683l-51.277557 0c-14.159912 0 -25.638763 -1.8882141 -25.638763 -4.2174683c0 -2.3292542 11.478851 -4.2174835 25.638763 -4.2174835l76.91635 0zm410.22046 0c0 -2.3292236 11.478882 -4.2174683 25.638794 -4.2174683l51.277588 0c14.159912 0 25.638794 -1.8882141 25.638794 -4.2174683c0 -2.3292542 -11.478882 -4.2174835 -25.638794 -4.2174835l-76.91638 0z" fill-rule="evenodd"/><path fill="#000000" fill-opacity="0.0" d="m357.77954 270.24408l102.555115 -113.58078l-102.555115 -113.5808l102.555115 0l0 -12.652424l0 0c0 -2.3292465 11.478851 -4.217474 25.638763 -4.217474l564.0532 0c14.159912 0 25.638794 1.8882275 25.638794 4.217474l0 12.652424l0 0l102.55505 0l-102.55505 113.5808l102.55505 113.58078l-179.47144 0c-14.159912 0 -25.638794 -1.8882141 -25.638794 -4.2174683c0 -2.3292236 11.478882 -4.2174683 25.638794 -4.2174683l51.277588 0c14.159912 0 25.638794 -1.8882141 25.638794 -4.2174683c0 -2.3292542 -11.478882 -4.2174835 -25.638794 -4.2174835l-564.0532 0c-14.159912 0 -25.638763 1.8882294 -25.638763 4.2174835c0 2.3292542 11.478851 4.2174683 25.638763 4.2174683l51.277557 0c14.159912 0 25.638794 1.8882446 25.638794 4.2174683c0 2.3292542 -11.478882 4.2174683 -25.638794 4.2174683zm205.11023 -16.869888l0 12.65242m410.22046 0l0 -12.65242m-512.7756 4.2174835l0 -214.50919m615.33075 0l0 214.50919" fill-rule="evenodd"/><path fill="#000000" fill-opacity="0.2" d="m562.8898 266.0266c0 -2.3292236 -11.478882 -4.2174683 -25.638794 -4.2174683l-51.277557 0c-14.159912 0 -25.638763 -1.8882141 -25.638763 -4.2174683c0 -2.3292542 11.478851 -4.2174835 25.638763 -4.2174835l76.91635 0zm410.22046 0c0 -2.3292236 11.478882 -4.2174683 25.638794 -4.2174683l51.277588 0c14.159912 0 25.638794 -1.8882141 25.638794 -4.2174683c0 -2.3292542 -11.478882 -4.2174835 -25.638794 -4.2174835l-76.91638 0z" fill-rule="evenodd"/><path stroke="#ffffff" stroke-width="4.0" stroke-linejoin="round" stroke-linecap="butt" d="m357.77954 270.24408l102.555115 -113.58078l-102.555115 -113.5808l102.555115 0l0 -12.652424l0 0c0 -2.3292465 11.478851 -4.217474 25.638763 -4.217474l564.0532 0c14.159912 0 25.638794 1.8882275 25.638794 4.217474l0 12.652424l0 0l102.55505 0l-102.55505 113.5808l102.55505 113.58078l-179.47144 0c-14.159912 0 -25.638794 -1.8882141 -25.638794 -4.2174683c0 -2.3292236 11.478882 -4.2174683 25.638794 -4.2174683l51.277588 0c14.159912 0 25.638794 -1.8882141 25.638794 -4.2174683c0 -2.3292542 -11.478882 -4.2174835 -25.638794 -4.2174835l-564.0532 0c-14.159912 0 -25.638763 1.8882294 -25.638763 4.2174835c0 2.3292542 11.478851 4.2174683 25.638763 4.2174683l51.277557 0c14.159912 0 25.638794 1.8882446 25.638794 4.2174683c0 2.3292542 -11.478882 4.2174683 -25.638794 4.2174683zm205.11023 -16.869888l0 12.65242m410.22046 0l0 -12.65242m-512.7756 4.2174835l0 -214.50919m615.33075 0l0 214.50919" fill-rule="evenodd"/><path fill="#000000" fill-opacity="0.0" d="m143.10757 98.248886l0 0c4.629196 -2.6103058 10.498657 -0.9740677 13.1098175 3.6546402l-8.381897 4.7263794c2.3146057 -1.3051529 5.2493286 -0.48703766 6.5549164 1.8273163c1.3055725 2.314354 0.48760986 5.248543 -1.8269806 6.5536957l8.381882 -4.726372l74.76111 132.52623l0 0c2.6111603 4.628708 8.480621 6.2649536 13.1098175 3.6546478l100.58269 -56.716537c4.629181 -2.6103058 6.265106 -8.478683 3.6539612 -13.107391c-2.6111755 -4.628708 -8.480621 -6.2649536 -13.109833 -3.6546478l-8.381866 4.7263794l-74.76111 -132.52625c-2.6111755 -4.628708 -8.480637 -6.264946 -13.109833 -3.6546364zm109.362625 135.10915c-2.6111603 -4.628708 -8.480621 -6.2649536 -13.1098175 -3.6546478c-2.3145905 1.3051605 -3.132553 4.2393494 -1.8269806 6.5536957c1.3055878 2.3143616 4.2403107 3.1324768 6.5549164 1.8273315z" fill-rule="evenodd"/><path fill="#000000" fill-opacity="0.0" d="m252.4702 233.35803c-2.6111603 -4.628708 -8.480621 -6.2649536 -13.1098175 -3.6546478c-2.3145905 1.3051605 -3.132553 4.2393494 -1.8269806 6.5536957c1.3055878 2.3143616 4.2403107 3.1324768 6.5549164 1.8273315zm-96.25281 -131.4545c-2.6111603 -4.628708 -8.480621 -6.264946 -13.1098175 -3.6546402c-4.629196 2.6103058 -6.2651215 8.478691 -3.6539612 13.107399c2.6111603 4.628708 8.480621 6.264946 13.1098175 3.6546326c2.3145905 -1.3051529 3.132553 -4.2393417 1.8269806 -6.5536957c-1.3055878 -2.314354 -4.2403107 -3.1324692 -6.5549164 -1.8273163z" fill-rule="evenodd"/><path fill="#000000" fill-opacity="0.0" d="m248.81624 246.46542c-4.629196 2.6103058 -10.498657 0.97406006 -13.1098175 -3.6546478l-74.76111 -132.52623l-8.381882 4.726372l0 0c-4.629196 2.6103134 -10.498657 0.9740753 -13.1098175 -3.6546326c-2.6111603 -4.628708 -0.975235 -10.497093 3.6539612 -13.107399l100.58267 -56.716534c4.629196 -2.6103096 10.498657 -0.9740715 13.109833 3.6546364l74.76111 132.52625l8.381866 -4.7263794c4.6292114 -2.6103058 10.498657 -0.97406006 13.109833 3.6546478c2.611145 4.628708 0.9752197 10.497086 -3.6539612 13.107391zm-87.870926 -136.18088l-4.7279205 -8.38102c-2.6111603 -4.628708 -8.480621 -6.264946 -13.1098175 -3.6546402m13.1098175 3.6546402l-8.381897 4.7263794c2.3146057 -1.3051529 5.2493286 -0.48703766 6.5549164 1.8273163c1.3055725 2.314354 0.48760986 5.248543 -1.8269806 6.5536957m99.90677 118.347115l-8.381882 4.7263794l0 0c-2.3146057 1.3051453 -5.2493286 0.48703003 -6.5549164 -1.8273315c-1.3055725 -2.3143463 -0.48760986 -5.248535 1.8269806 -6.5536957c4.629196 -2.6103058 10.498657 -0.97406006 13.1098175 3.6546478c2.6111603 4.628708 0.9752197 10.497086 -3.6539612 13.107391m-9.455856 -16.76204l92.200806 -51.990158" fill-rule="evenodd"/><path fill="#000000" fill-opacity="0.2" d="m252.4702 233.35803c-2.6111603 -4.628708 -8.480621 -6.2649536 -13.1098175 -3.6546478c-2.3145905 1.3051605 -3.132553 4.2393494 -1.8269806 6.5536957c1.3055878 2.3143616 4.2403107 3.1324768 6.5549164 1.8273315zm-96.25281 -131.4545c-2.6111603 -4.628708 -8.480621 -6.264946 -13.1098175 -3.6546402c-4.629196 2.6103058 -6.2651215 8.478691 -3.6539612 13.107399c2.6111603 4.628708 8.480621 6.264946 13.1098175 3.6546326c2.3145905 -1.3051529 3.132553 -4.2393417 1.8269806 -6.5536957c-1.3055878 -2.314354 -4.2403107 -3.1324692 -6.5549164 -1.8273163z" fill-rule="evenodd"/><path stroke="#ffffff" stroke-width="4.0" stroke-linejoin="round" stroke-linecap="butt" d="m248.81624 246.46542c-4.629196 2.6103058 -10.498657 0.97406006 -13.1098175 -3.6546478l-74.76111 -132.52623l-8.381882 4.726372l0 0c-4.629196 2.6103134 -10.498657 0.9740753 -13.1098175 -3.6546326c-2.6111603 -4.628708 -0.975235 -10.497093 3.6539612 -13.107399l100.58267 -56.716534c4.629196 -2.6103096 10.498657 -0.9740715 13.109833 3.6546364l74.76111 132.52625l8.381866 -4.7263794c4.6292114 -2.6103058 10.498657 -0.97406006 13.109833 3.6546478c2.611145 4.628708 0.9752197 10.497086 -3.6539612 13.107391zm-87.870926 -136.18088l-4.7279205 -8.38102c-2.6111603 -4.628708 -8.480621 -6.264946 -13.1098175 -3.6546402m13.1098175 3.6546402l-8.381897 4.7263794c2.3146057 -1.3051529 5.2493286 -0.48703766 6.5549164 1.8273163c1.3055725 2.314354 0.48760986 5.248543 -1.8269806 6.5536957m99.90677 118.347115l-8.381882 4.7263794l0 0c-2.3146057 1.3051453 -5.2493286 0.48703003 -6.5549164 -1.8273315c-1.3055725 -2.3143463 -0.48760986 -5.248535 1.8269806 -6.5536957c4.629196 -2.6103058 10.498657 -0.97406006 13.1098175 3.6546478c2.6111603 4.628708 0.9752197 10.497086 -3.6539612 13.107391m-9.455856 -16.76204l92.200806 -51.990158" fill-rule="evenodd"/><path fill="#000000" fill-opacity="0.0" d="m1186.4985 196.821l0 0c4.571533 2.7103271 10.474365 1.201294 13.184326 -3.370514l-8.277588 -4.907486c2.2857666 1.3551636 5.2371826 0.60066223 6.592163 -1.6852417c1.3549805 -2.285904 0.60046387 -5.2375793 -1.6854248 -6.592743l8.277588 4.907486l83.61047 -141.0558l0 0c2.709961 -4.571804 8.612793 -6.0808334 13.184326 -3.3705063l99.33069 58.889763c4.571533 2.7103271 6.0806885 8.613663 3.3708496 13.185471c-2.709961 4.571808 -8.612793 6.0808334 -13.184326 3.3705063l-8.277588 -4.9074783l-83.61047 141.0558c-2.7098389 4.5717926 -8.612671 6.080826 -13.184326 3.3704987zm118.25659 -142.88934l0 0c-2.7098389 4.571808 -8.612671 6.0808372 -13.184204 3.37051c-2.2858887 -1.3551636 -3.0404053 -4.3068314 -1.6854248 -6.5927353c1.3549805 -2.285904 4.3063965 -3.0404167 6.592163 -1.6852531z" fill-rule="evenodd"/><path fill="#000000" fill-opacity="0.0" d="m1304.7551 53.93166l0 0c-2.7098389 4.571808 -8.612671 6.0808372 -13.184204 3.37051c-2.2858887 -1.3551636 -3.0404053 -4.3068314 -1.6854248 -6.5927353c1.3549805 -2.285904 4.3063965 -3.0404167 6.592163 -1.6852531zm-105.072266 139.51883c-2.709961 4.571808 -8.612793 6.080841 -13.184326 3.370514c-4.571533 -2.7103271 -6.0806885 -8.613663 -3.3707275 -13.185471c2.7098389 -4.571808 8.612671 -6.080841 13.184204 -3.370514l0 0c2.2858887 1.3551636 3.0404053 4.306839 1.6854248 6.592743c-1.3549805 2.285904 -4.3063965 3.0404053 -6.592163 1.6852417z" fill-rule="evenodd"/><path fill="#000000" fill-opacity="0.0" d="m1204.5896 185.1725l83.61047 -141.0558l0 0c2.709961 -4.571804 8.612793 -6.0808334 13.184326 -3.3705063l99.33069 58.889763c4.571533 2.7103271 6.0806885 8.613663 3.3708496 13.185471c-2.709961 4.571808 -8.612793 6.0808334 -13.184326 3.3705063l-8.277588 -4.9074783l-83.61047 141.0558c-2.7098389 4.5717926 -8.612671 6.080826 -13.184326 3.3704987l-99.33069 -58.889755l0 0c-4.571533 -2.7103271 -6.0806885 -8.613663 -3.3707275 -13.185471c2.7098389 -4.571808 8.612671 -6.080841 13.184204 -3.370514zm96.7948 -144.4263l0 0c4.571533 2.7103271 6.0806885 8.613663 3.3707275 13.185467c-2.7098389 4.571808 -8.612671 6.0808372 -13.184204 3.37051c-2.2858887 -1.3551636 -3.0404053 -4.3068314 -1.6854248 -6.5927353c1.3549805 -2.285904 4.3063965 -3.0404167 6.592163 -1.6852531l8.277466 4.9074783m77.8689 57.352795l-91.0531 -53.982285m-95.25891 122.962845l0 0c2.2858887 1.3551636 3.0404053 4.306839 1.6854248 6.592743c-1.3549805 2.285904 -4.3063965 3.0404053 -6.592163 1.6852417l8.277588 4.907486m-13.184326 3.370514l0 0c4.571533 2.7103271 10.474365 1.201294 13.184326 -3.370514l4.9067383 -8.277985" fill-rule="evenodd"/><path fill="#000000" fill-opacity="0.2" d="m1304.7551 53.93166l0 0c-2.7098389 4.571808 -8.612671 6.0808372 -13.184204 3.37051c-2.2858887 -1.3551636 -3.0404053 -4.3068314 -1.6854248 -6.5927353c1.3549805 -2.285904 4.3063965 -3.0404167 6.592163 -1.6852531zm-105.072266 139.51883c-2.709961 4.571808 -8.612793 6.080841 -13.184326 3.370514c-4.571533 -2.7103271 -6.0806885 -8.613663 -3.3707275 -13.185471c2.7098389 -4.571808 8.612671 -6.080841 13.184204 -3.370514l0 0c2.2858887 1.3551636 3.0404053 4.306839 1.6854248 6.592743c-1.3549805 2.285904 -4.3063965 3.0404053 -6.592163 1.6852417z" fill-rule="evenodd"/><path stroke="#ffffff" stroke-width="4.0" stroke-linejoin="round" stroke-linecap="butt" d="m1204.5896 185.1725l83.61047 -141.0558l0 0c2.709961 -4.571804 8.612793 -6.0808334 13.184326 -3.3705063l99.33069 58.889763c4.571533 2.7103271 6.0806885 8.613663 3.3708496 13.185471c-2.709961 4.571808 -8.612793 6.0808334 -13.184326 3.3705063l-8.277588 -4.9074783l-83.61047 141.0558c-2.7098389 4.5717926 -8.612671 6.080826 -13.184326 3.3704987l-99.33069 -58.889755l0 0c-4.571533 -2.7103271 -6.0806885 -8.613663 -3.3707275 -13.185471c2.7098389 -4.571808 8.612671 -6.080841 13.184204 -3.370514zm96.7948 -144.4263l0 0c4.571533 2.7103271 6.0806885 8.613663 3.3707275 13.185467c-2.7098389 4.571808 -8.612671 6.0808372 -13.184204 3.37051c-2.2858887 -1.3551636 -3.0404053 -4.3068314 -1.6854248 -6.5927353c1.3549805 -2.285904 4.3063965 -3.0404167 6.592163 -1.6852531l8.277466 4.9074783m77.8689 57.352795l-91.0531 -53.982285m-95.25891 122.962845l0 0c2.2858887 1.3551636 3.0404053 4.306839 1.6854248 6.592743c-1.3549805 2.285904 -4.3063965 3.0404053 -6.592163 1.6852417l8.277588 4.907486m-13.184326 3.370514l0 0c4.571533 2.7103271 10.474365 1.201294 13.184326 -3.370514l4.9067383 -8.277985" fill-rule="evenodd"/><path fill="#ffffff" d="m228.5048 78.15323l0.9437103 1.6753006l-23.781357 13.399727l-0.9437103 -1.6753082zm1.8874207 3.3506088l1.8874054 3.3506088l-23.781357 13.399719l-1.8874207 -3.3506088zm2.8311157 5.0259094l39.45775 70.04696l14.912476 -8.402512l-11.703857 41.90724l-41.902435 -11.702515l14.91246 -8.402496l-39.45775 -70.04695z" fill-rule="evenodd"/><path stroke="#ffffff" stroke-width="3.0" stroke-linejoin="round" stroke-linecap="butt" d="m228.5048 78.15323l0.9437103 1.6753006l-23.781357 13.399727l-0.9437103 -1.6753082zm1.8874207 3.3506088l1.8874054 3.3506088l-23.781357 13.399719l-1.8874207 -3.3506088zm2.8311157 5.0259094l39.45775 70.04696l14.912476 -8.402512l-11.703857 41.90724l-41.902435 -11.702515l14.91246 -8.402496l-39.45775 -70.04695z" fill-rule="evenodd"/><path fill="#ffffff" d="m1248.4276 201.33159l0.96069336 -1.6663666l23.655518 13.637253l-0.9605713 1.6663666zm1.9212646 -3.332718l1.9211426 -3.3327332l23.65564 13.637253l-1.9212646 3.3327332zm2.8817139 -4.9990845l40.14258 -69.63634l-14.833618 -8.551453l42.030884 -11.291702l11.291992 42.03186l-14.833618 -8.551453l-40.14258 69.63634z" fill-rule="evenodd"/><path stroke="#ffffff" stroke-width="3.0" stroke-linejoin="round" stroke-linecap="butt" d="m1248.4276 201.33159l0.96069336 -1.6663666l23.655518 13.637253l-0.9605713 1.6663666zm1.9212646 -3.332718l1.9211426 -3.3327332l23.65564 13.637253l-1.9212646 3.3327332zm2.8817139 -4.9990845l40.14258 -69.63634l-14.833618 -8.551453l42.030884 -11.291702l11.291992 42.03186l-14.833618 -8.551453l-40.14258 69.63634z" fill-rule="evenodd"/><path fill="#000000" fill-opacity="0.0" d="m462.6614 27.35433l614.04724 0l0 224.34647l-614.04724 0z" fill-rule="evenodd"/><path fill="#ffffff" d="m562.05225 124.7188l-38.53125 0l0 -12.28125l38.53125 0l0 12.28125zm5.4375 -27.5625l-48.84375 0l0 55.031242l-12.1875305 0l0 -61.078117q0 -1.265625 0.46875 -2.390625q0.46875 -1.125 1.28125 -1.96875q0.828125 -0.84375 1.953125 -1.3125q1.125 -0.46875 2.4375305 -0.46875l54.890625 0l0 12.1875zm51.0 16.546875l-27.421875 0q-2.484375 0 -3.75 1.25q-1.265625 1.234375 -1.265625 3.625l0 33.609367l-12.1875 0l0 -33.609367q0 -3.140625 0.796875 -5.625q0.796875 -2.484375 2.125 -4.375q1.34375 -1.90625 3.078125 -3.234375q1.734375 -1.34375 3.625 -2.1875q1.90625 -0.84375 3.84375 -1.234375q1.953125 -0.40625 3.640625 -0.40625l27.515625 0l0 12.1875zm62.34375 4.59375q0 2.53125 -0.890625 5.46875q-0.890625 2.921875 -2.890625 5.4374924q-1.984375 2.5 -5.203125 4.1875q-3.203125 1.6875 -7.796875 1.6875l-21.984375 0l0 -11.578117l21.984375 0q2.484375 0 3.84375 -1.515625q1.359375 -1.53125 1.359375 -3.78125q0 -2.390625 -1.53125 -3.75q-1.515625 -1.359375 -3.671875 -1.359375l-21.984375 0q-2.484375 0 -3.84375 1.53125q-1.359375 1.515625 -1.359375 3.765625l0 17.015617q0 2.4375 1.515625 3.796875q1.53125 1.359375 3.78125 1.359375l21.890625 0l0 11.625l-21.984375 0q-2.53125 0 -5.46875 -0.890625q-2.921875 -0.890625 -5.4375 -2.875q-2.5 -2.0 -4.1875 -5.203125q-1.6875 -3.21875 -1.6875 -7.8125l0 -17.109367q0 -2.53125 0.890625 -5.453125q0.890625 -2.9375 2.875 -5.4375q2.0 -2.515625 5.203125 -4.203125q3.21875 -1.6875 7.8125 -1.6875l21.984375 0q2.53125 0 5.453125 0.890625q2.9375 0.890625 5.4375 2.890625q2.515625 1.984375 4.203125 5.203125q1.6875 3.203125 1.6875 7.796875zm62.71875 0q0 2.53125 -0.890625 5.46875q-0.890625 2.921875 -2.890625 5.4374924q-1.984375 2.5 -5.203125 4.1875q-3.203125 1.6875 -7.796875 1.6875l-21.984375 0l0 -11.578117l21.984375 0q2.484375 0 3.84375 -1.515625q1.359375 -1.53125 1.359375 -3.78125q0 -2.390625 -1.53125 -3.75q-1.515625 -1.359375 -3.671875 -1.359375l-21.984375 0q-2.484375 0 -3.84375 1.53125q-1.359375 1.515625 -1.359375 3.765625l0 17.015617q0 2.4375 1.515625 3.796875q1.53125 1.359375 3.78125 1.359375l21.890625 0l0 11.625l-21.984375 0q-2.53125 0 -5.46875 -0.890625q-2.921875 -0.890625 -5.4375 -2.875q-2.5 -2.0 -4.1875 -5.203125q-1.6875 -3.21875 -1.6875 -7.8125l0 -17.109367q0 -2.53125 0.890625 -5.453125q0.890625 -2.9375 2.875 -5.4375q2.0 -2.515625 5.203125 -4.203125q3.21875 -1.6875 7.8125 -1.6875l21.984375 0q2.53125 0 5.453125 0.890625q2.9375 0.890625 5.4375 2.890625q2.515625 1.984375 4.203125 5.203125q1.6875 3.203125 1.6875 7.796875zm107.859375 5.765625q0 6.1406174 -2.140625 11.296867q-2.125 5.15625 -5.875 8.890625q-3.75 3.71875 -8.90625 5.828125q-5.15625 2.109375 -11.203125 2.109375l-32.90625 0q-1.3125 0 -2.4375 -0.46875q-1.125 -0.46875 -1.953125 -1.28125q-0.8125 -0.828125 -1.28125 -1.953125q-0.46875 -1.125 -0.46875 -2.4375l0 -54.937492q0 -1.265625 0.46875 -2.390625q0.46875 -1.125 1.28125 -1.96875q0.828125 -0.84375 1.953125 -1.3125q1.125 -0.46875 2.4375 -0.46875l32.90625 0q6.046875 0 11.203125 2.109375q5.15625 2.109375 8.90625 5.84375q3.75 3.71875 5.875 8.90625q2.140625 5.171875 2.140625 11.265625l0 10.96875zm-12.1875 -10.96875q0 -3.5625 -1.15625 -6.515625q-1.140625 -2.953125 -3.25 -5.03125q-2.109375 -2.09375 -5.046875 -3.234375q-2.921875 -1.15625 -6.484375 -1.15625l-26.859375 0l0 42.843742l26.859375 0q3.5625 0 6.484375 -1.140625q2.9375 -1.15625 5.046875 -3.234375q2.109375 -2.09375 3.25 -5.015625q1.15625 -2.9374924 1.15625 -6.5468674l0 -10.96875zm66.890625 0.609375l-27.421875 0q-2.484375 0 -3.75 1.25q-1.265625 1.234375 -1.265625 3.625l0 33.609367l-12.1875 0l0 -33.609367q0 -3.140625 0.796875 -5.625q0.796875 -2.484375 2.125 -4.375q1.34375 -1.90625 3.078125 -3.234375q1.734375 -1.34375 3.625 -2.1875q1.90625 -0.84375 3.84375 -1.234375q1.953125 -0.40625 3.640625 -0.40625l27.515625 0l0 12.1875zm62.953125 21.374992q0 3.140625 -0.796875 5.65625q-0.796875 2.5 -2.109375 4.40625q-1.3125 1.890625 -3.046875 3.234375q-1.734375 1.328125 -3.640625 2.171875q-1.890625 0.84375 -3.84375 1.25q-1.9375 0.390625 -3.671875 0.390625l-21.984375 0q-2.53125 0 -5.53125 -0.890625q-3.0 -0.890625 -5.5625 -2.921875q-2.546875 -2.046875 -4.265625 -5.296875q-1.703125 -3.265625 -1.703125 -8.0l0 -16.499992q0 -4.6875 1.703125 -7.9375q1.71875 -3.265625 4.265625 -5.296875q2.5625 -2.046875 5.5625 -2.9375q3.0 -0.890625 5.53125 -0.890625l21.984375 0q4.6875 0 7.96875 1.6875q3.28125 1.6875 5.296875 4.25q2.015625 2.546875 2.921875 5.546875q0.921875 3.0 0.921875 5.578125l0 16.499992zm-12.1875 -16.406242q0 -2.53125 -1.265625 -3.75q-1.265625 -1.21875 -3.65625 -1.21875l-21.890625 0q-2.4375 0 -3.703125 1.25q-1.265625 1.234375 -1.265625 3.625l0 16.499992q0 2.390625 1.265625 3.65625q1.265625 1.265625 3.703125 1.265625l21.890625 0q2.484375 0 3.703125 -1.265625q1.21875 -1.265625 1.21875 -3.65625l0 -16.406242zm78.421875 16.406242q0 3.140625 -0.796875 5.65625q-0.796875 2.5 -2.109375 4.40625q-1.3125 1.890625 -3.046875 3.234375q-1.734375 1.328125 -3.640625 2.171875q-1.890625 0.84375 -3.8125 1.25q-1.921875 0.390625 -3.65625 0.390625l-21.984375 0l0 -12.1875l21.984375 0q2.4375 0 3.65625 -1.265625q1.21875 -1.265625 1.21875 -3.65625l0 -16.406242q0 -2.53125 -1.25 -3.75q-1.234375 -1.21875 -3.625 -1.21875l-21.890625 0q-2.484375 0 -3.75 1.25q-1.265625 1.234375 -1.265625 3.625l0 49.453117l-12.1875 0l0 -49.453117q0 -3.140625 0.796875 -5.625q0.796875 -2.484375 2.125 -4.375q1.34375 -1.90625 3.078125 -3.234375q1.734375 -1.34375 3.625 -2.1875q1.90625 -0.84375 3.84375 -1.234375q1.953125 -0.40625 3.640625 -0.40625l21.984375 0q3.140625 0 5.625 0.796875q2.484375 0.796875 4.375 2.109375q1.90625 1.3125 3.234375 3.046875q1.34375 1.734375 2.1875 3.640625q0.84375 1.890625 1.234375 3.8125q0.40625 1.921875 0.40625 3.65625l0 16.499992z" fill-rule="nonzero"/><path fill="#ffffff" d="m696.3414 192.94754l-8.546875 0q-0.328125 0 -0.71875 -0.078125q-0.375 -0.078125 -0.75 -0.234375q-0.359375 -0.171875 -0.703125 -0.421875q-0.328125 -0.265625 -0.59375 -0.625q-0.25 -0.375 -0.40625 -0.859375q-0.15625 -0.5 -0.15625 -1.109375l0 -6.40625q0 -0.328125 0.078125 -0.703125q0.078125 -0.390625 0.234375 -0.75q0.171875 -0.375 0.4375 -0.703125q0.265625 -0.34375 0.625 -0.59375q0.375 -0.265625 0.859375 -0.421875q0.484375 -0.15625 1.09375 -0.15625l8.546875 0l0 2.375l-8.546875 0q-0.46875 0 -0.71875 0.25q-0.234375 0.234375 -0.234375 0.71875l0 6.390625q0 0.453125 0.25 0.703125q0.25 0.25 0.703125 0.25l8.546875 0l0 2.375zm14.735718 -3.84375q0 0.703125 -0.171875 1.265625q-0.171875 0.5625 -0.46875 0.984375q-0.296875 0.421875 -0.6875 0.734375q-0.390625 0.296875 -0.8125 0.484375q-0.40625 0.1875 -0.84375 0.28125q-0.4375 0.09375 -0.8125 0.09375l-9.140625 0l0 -2.375l9.140625 0q0.671875 0 1.046875 -0.390625q0.390625 -0.40625 0.390625 -1.078125q0 -0.328125 -0.109375 -0.59375q-0.09375 -0.28125 -0.28125 -0.484375q-0.1875 -0.203125 -0.453125 -0.3125q-0.265625 -0.109375 -0.59375 -0.109375l-5.453125 0q-0.578125 0 -1.25 -0.203125q-0.65625 -0.203125 -1.234375 -0.65625q-0.5625 -0.453125 -0.9375 -1.1875q-0.375 -0.75 -0.375 -1.8125q0 -1.0625 0.375 -1.796875q0.375 -0.734375 0.9375 -1.1875q0.578125 -0.46875 1.234375 -0.671875q0.671875 -0.203125 1.25 -0.203125l8.0625 0l0 2.375l-8.0625 0q-0.671875 0 -1.046875 0.40625q-0.375 0.40625 -0.375 1.078125q0 0.6875 0.375 1.09375q0.375 0.390625 1.046875 0.390625l5.453125 0l0.015625 0q0.375 0 0.796875 0.09375q0.4375 0.09375 0.859375 0.296875q0.421875 0.203125 0.796875 0.515625q0.390625 0.296875 0.6875 0.734375q0.296875 0.421875 0.46875 0.984375q0.171875 0.546875 0.171875 1.25zm13.676819 3.84375l-8.546936 0q-0.328125 0 -0.71875 -0.078125q-0.375 -0.078125 -0.75 -0.234375q-0.359375 -0.171875 -0.703125 -0.421875q-0.328125 -0.265625 -0.59375 -0.625q-0.25 -0.375 -0.40625 -0.859375q-0.15625 -0.5 -0.15625 -1.109375l0 -6.40625q0 -0.328125 0.078125 -0.703125q0.078125 -0.390625 0.234375 -0.75q0.171875 -0.375 0.4375 -0.703125q0.265625 -0.34375 0.625 -0.59375q0.375 -0.265625 0.859375 -0.421875q0.484375 -0.15625 1.09375 -0.15625l8.546936 0l0 2.375l-8.546936 0q-0.46875 0 -0.71875 0.25q-0.234375 0.234375 -0.234375 0.71875l0 6.390625q0 0.453125 0.25 0.703125q0.25 0.25 0.703125 0.25l8.546936 0l0 2.375zm4.625 0l-2.375 0l0 -13.0625l2.375 0l0 13.0625zm19.5979 -3.328125q0 0.921875 -0.328125 1.5625q-0.328125 0.625 -0.828125 1.03125q-0.5 0.390625 -1.09375 0.5625q-0.578125 0.171875 -1.078125 0.171875l-7.59375 0l0 -2.375l7.59375 0q0.484375 0 0.71875 -0.234375q0.234375 -0.25 0.234375 -0.71875l0 -2.015625l-8.546875 0l0 -2.375l8.546875 0l0 -2.0q0 -0.96875 -0.953125 -0.96875l-7.59375 0l0 -2.375l7.59375 0q0.609375 0 1.09375 0.15625q0.484375 0.15625 0.84375 0.421875q0.375 0.25 0.640625 0.59375q0.265625 0.328125 0.421875 0.703125q0.171875 0.359375 0.25 0.75q0.078125 0.375 0.078125 0.703125l0 6.40625zm13.418274 0q0 0.921875 -0.328125 1.5625q-0.328125 0.625 -0.828125 1.03125q-0.5 0.390625 -1.09375 0.5625q-0.578125 0.171875 -1.078125 0.171875l-7.59375 0l0 -2.375l7.59375 0q0.484375 0 0.71875 -0.234375q0.234375 -0.25 0.234375 -0.71875l0 -2.015625l-8.546875 0l0 -2.375l8.546875 0l0 -2.0q0 -0.96875 -0.953125 -0.96875l-7.59375 0l0 -2.375l7.59375 0q0.609375 0 1.09375 0.15625q0.484375 0.15625 0.84375 0.421875q0.375 0.25 0.640625 0.59375q0.265625 0.328125 0.421875 0.703125q0.171875 0.359375 0.25 0.75q0.078125 0.375 0.078125 0.703125l0 6.40625zm17.52771 -2.140625q0 0.796875 -0.21875 1.515625q-0.203125 0.71875 -0.578125 1.328125q-0.375 0.609375 -0.890625 1.09375q-0.5 0.484375 -1.109375 0.828125q-0.59375 0.34375 -1.28125 0.53125q-0.6875 0.171875 -1.390625 0.171875l-4.28125 0q-0.71875 0 -1.40625 -0.171875q-0.671875 -0.1875 -1.28125 -0.53125q-0.609375 -0.34375 -1.125 -0.828125q-0.5 -0.484375 -0.875 -1.09375q-0.359375 -0.609375 -0.578125 -1.328125q-0.203125 -0.71875 -0.203125 -1.515625l0 -2.125q0 -1.203125 0.453125 -2.203125q0.453125 -1.0 1.203125 -1.71875q0.765625 -0.734375 1.75 -1.140625q0.984375 -0.40625 2.0625 -0.40625l4.28125 0q0.703125 0 1.390625 0.1875q0.6875 0.171875 1.28125 0.515625q0.609375 0.34375 1.109375 0.828125q0.515625 0.484375 0.890625 1.09375q0.375 0.609375 0.578125 1.328125q0.21875 0.703125 0.21875 1.515625l0 2.125zm-2.390625 -2.125q0 -0.703125 -0.265625 -1.28125q-0.25 -0.578125 -0.671875 -0.984375q-0.421875 -0.40625 -0.984375 -0.625q-0.546875 -0.21875 -1.15625 -0.203125l-4.28125 0q-0.59375 -0.015625 -1.15625 0.203125q-0.546875 0.203125 -0.984375 0.609375q-0.4375 0.40625 -0.703125 0.984375q-0.25 0.578125 -0.25 1.296875l0 2.125q0 0.71875 0.25 1.296875q0.265625 0.5625 0.6875 0.96875q0.421875 0.40625 0.984375 0.625q0.5625 0.21875 1.171875 0.203125l4.28125 0q0.703125 0 1.265625 -0.21875q0.5625 -0.234375 0.96875 -0.640625q0.40625 -0.421875 0.625 -0.984375q0.21875 -0.578125 0.21875 -1.25l0 -2.125zm-1.03125 -1.734375q0.140625 0.203125 0.171875 0.4375q0.046875 0.234375 0 0.453125q-0.03125 0.21875 -0.171875 0.421875q-0.125 0.1875 -0.34375 0.328125l-6.390625 4.265625q-0.15625 0.125 -0.328125 0.171875q-0.15625 0.046875 -0.328125 0.046875q-0.296875 0 -0.5625 -0.140625q-0.25 -0.140625 -0.421875 -0.390625q-0.140625 -0.203125 -0.1875 -0.4375q-0.03125 -0.234375 0 -0.453125q0.046875 -0.21875 0.171875 -0.40625q0.125 -0.203125 0.328125 -0.34375l6.421875 -4.265625q0.203125 -0.140625 0.421875 -0.1875q0.234375 -0.046875 0.453125 0q0.234375 0.046875 0.421875 0.171875q0.203125 0.125 0.34375 0.328125zm17.403076 6.0q0 0.34375 -0.078125 0.71875q-0.078125 0.375 -0.25 0.75q-0.171875 0.359375 -0.4375 0.703125q-0.265625 0.328125 -0.640625 0.59375q-0.359375 0.25 -0.84375 0.40625q-0.484375 0.15625 -1.078125 0.15625l-5.359375 0q-0.484375 0 -1.078125 -0.171875q-0.578125 -0.171875 -1.078125 -0.5625q-0.5 -0.40625 -0.828125 -1.03125q-0.328125 -0.640625 -0.328125 -1.5625l0 -1.046875q0 -0.359375 0.078125 -0.734375q0.078125 -0.390625 0.234375 -0.75q0.171875 -0.375 0.4375 -0.71875q0.265625 -0.34375 0.640625 -0.578125q-0.15625 -0.390625 -0.25 -0.78125q-0.078125 -0.390625 -0.078125 -0.734375l0 -1.0625q0 -0.921875 0.328125 -1.546875q0.34375 -0.640625 0.828125 -1.03125q0.5 -0.390625 1.078125 -0.5625q0.59375 -0.1875 1.078125 -0.1875l3.203125 0q0.625 0 1.109375 0.15625q0.484375 0.15625 0.84375 0.421875q0.375 0.25 0.625 0.59375q0.265625 0.328125 0.421875 0.703125q0.171875 0.359375 0.25 0.75q0.078125 0.375 0.078125 0.703125l0 1.0625q0 0.890625 -0.3125 1.546875q0.28125 0.1875 0.53125 0.453125q0.265625 0.265625 0.453125 0.609375q0.203125 0.328125 0.3125 0.75q0.109375 0.421875 0.109375 0.9375l0 1.046875zm-3.453125 -6.390625q0 -0.484375 -0.25 -0.71875q-0.25 -0.25 -0.71875 -0.25l-3.1875 0q-0.484375 0 -0.71875 0.25q-0.21875 0.234375 -0.21875 0.703125l0 1.0625q0 0.46875 0.234375 0.71875q0.25 0.234375 0.6875 0.234375l3.203125 0q0.484375 0 0.71875 -0.234375q0.25 -0.25 0.25 -0.71875l0 -1.046875zm1.046875 5.34375q0 -0.46875 -0.25 -0.71875q-0.25 -0.25 -0.671875 -0.25l-5.359375 0q-0.4375 0 -0.703125 0.28125q-0.25 0.265625 -0.25 0.6875l0 1.046875q0 0.4375 0.265625 0.703125q0.28125 0.25 0.6875 0.25l5.359375 0q0.453125 0 0.6875 -0.265625q0.234375 -0.28125 0.234375 -0.6875l0 -1.046875zm14.595642 4.375l-2.390625 0l0 -10.6875l-2.140625 0l0 -2.375l4.53125 0l0 13.0625zm6.6134644 0l-2.390625 0l0 -10.6875l-2.140625 0l0 -2.375l4.53125 0l0 13.0625zm17.69165 -5.46875q0 0.796875 -0.21875 1.515625q-0.203125 0.71875 -0.578125 1.328125q-0.375 0.609375 -0.890625 1.09375q-0.5 0.484375 -1.109375 0.828125q-0.59375 0.34375 -1.28125 0.53125q-0.6875 0.171875 -1.390625 0.171875l-4.28125 0q-0.71875 0 -1.40625 -0.171875q-0.671875 -0.1875 -1.28125 -0.53125q-0.609375 -0.34375 -1.125 -0.828125q-0.5 -0.484375 -0.875 -1.09375q-0.359375 -0.609375 -0.578125 -1.328125q-0.203125 -0.71875 -0.203125 -1.515625l0 -2.125q0 -1.203125 0.453125 -2.203125q0.453125 -1.0 1.203125 -1.71875q0.765625 -0.734375 1.75 -1.140625q0.984375 -0.40625 2.0625 -0.40625l4.28125 0q0.703125 0 1.390625 0.1875q0.6875 0.171875 1.28125 0.515625q0.609375 0.34375 1.109375 0.828125q0.515625 0.484375 0.890625 1.09375q0.375 0.609375 0.578125 1.328125q0.21875 0.703125 0.21875 1.515625l0 2.125zm-2.390625 -2.125q0 -0.703125 -0.265625 -1.28125q-0.25 -0.578125 -0.671875 -0.984375q-0.421875 -0.40625 -0.984375 -0.625q-0.546875 -0.21875 -1.15625 -0.203125l-4.28125 0q-0.59375 -0.015625 -1.15625 0.203125q-0.546875 0.203125 -0.984375 0.609375q-0.4375 0.40625 -0.703125 0.984375q-0.25 0.578125 -0.25 1.296875l0 2.125q0 0.71875 0.25 1.296875q0.265625 0.5625 0.6875 0.96875q0.421875 0.40625 0.984375 0.625q0.5625 0.21875 1.171875 0.203125l4.28125 0q0.703125 0 1.265625 -0.21875q0.5625 -0.234375 0.96875 -0.640625q0.40625 -0.421875 0.625 -0.984375q0.21875 -0.578125 0.21875 -1.25l0 -2.125zm-1.03125 -1.734375q0.140625 0.203125 0.171875 0.4375q0.046875 0.234375 0 0.453125q-0.03125 0.21875 -0.171875 0.421875q-0.125 0.1875 -0.34375 0.328125l-6.390625 4.265625q-0.15625 0.125 -0.328125 0.171875q-0.15625 0.046875 -0.328125 0.046875q-0.296875 0 -0.5625 -0.140625q-0.25 -0.140625 -0.421875 -0.390625q-0.140625 -0.203125 -0.1875 -0.4375q-0.03125 -0.234375 0 -0.453125q0.046875 -0.21875 0.171875 -0.40625q0.125 -0.203125 0.328125 -0.34375l6.421875 -4.265625q0.203125 -0.140625 0.421875 -0.1875q0.234375 -0.046875 0.453125 0q0.234375 0.046875 0.421875 0.171875q0.203125 0.125 0.34375 0.328125zm14.028137 3.859375l-8.53125 0l0 -2.125l8.53125 0l0 2.125zm14.033081 5.46875l-12.0 0l0 -4.375q0 -0.34375 0.078125 -0.71875q0.078125 -0.375 0.234375 -0.75q0.171875 -0.375 0.421875 -0.703125q0.265625 -0.34375 0.625 -0.609375q0.375 -0.265625 0.859375 -0.40625q0.484375 -0.15625 1.09375 -0.15625l5.34375 0q0.484375 0 0.703125 -0.234375q0.234375 -0.25 0.234375 -0.71875l0 -1.046875q0 -0.484375 -0.234375 -0.71875q-0.234375 -0.25 -0.6875 -0.25l-7.609375 0l0 -2.375l7.609375 0q0.59375 0 1.078125 0.15625q0.484375 0.15625 0.84375 0.421875q0.375 0.25 0.640625 0.59375q0.265625 0.328125 0.4375 0.703125q0.171875 0.359375 0.25 0.75q0.078125 0.375 0.078125 0.703125l0 1.0625q0 0.921875 -0.34375 1.5625q-0.328125 0.625 -0.828125 1.03125q-0.5 0.390625 -1.078125 0.5625q-0.578125 0.171875 -1.078125 0.171875l-5.359375 0q-0.296875 0 -0.46875 0.09375q-0.171875 0.078125 -0.265625 0.21875q-0.09375 0.125 -0.140625 0.296875q-0.046875 0.171875 -0.078125 0.359375l0 2.0l9.640625 0l0 2.375z" fill-rule="nonzero"/><path fill="#ffffff" d="m622.20917 213.76004q0 0.25 -0.09375 0.46875q-0.078125 0.21875 -0.25 0.375q-0.15625 0.15625 -0.375 0.25q-0.21875 0.09375 -0.46875 0.09375l-5.34375 0q-0.75 0 -1.53125 -0.15625q-0.765625 -0.171875 -1.5 -0.515625q-0.71875 -0.34375 -1.359375 -0.859375q-0.640625 -0.53125 -1.125 -1.25q-0.46875 -0.734375 -0.75 -1.671875q-0.265625 -0.9375 -0.265625 -2.078125l0 -6.53125l2.375 0l0 6.53125q0 1.0 0.265625 1.703125q0.28125 0.6875 0.703125 1.15625q0.4375 0.453125 0.9375 0.71875q0.515625 0.265625 0.96875 0.390625q0.46875 0.125 0.8125 0.15625q0.359375 0.03125 0.46875 0.03125l4.171875 0l0 -10.6875l2.359375 0l0 11.875zm13.409302 1.1875l-2.375 0l0 -5.46875q0 -0.46875 -0.15625 -0.828125q-0.15625 -0.375 -0.4375 -0.640625q-0.265625 -0.265625 -0.640625 -0.40625q-0.375 -0.140625 -0.796875 -0.140625l-4.140625 0l0 7.484375l-2.375 0l0 -8.671875q0 -0.25 0.09375 -0.453125q0.09375 -0.21875 0.25 -0.375q0.171875 -0.171875 0.390625 -0.25q0.21875 -0.09375 0.46875 -0.09375l5.328125 0q0.453125 0 0.9375 0.109375q0.5 0.09375 0.984375 0.3125q0.5 0.21875 0.9375 0.5625q0.4375 0.34375 0.78125 0.828125q0.34375 0.484375 0.546875 1.125q0.203125 0.640625 0.203125 1.4375l0 5.46875zm4.4744873 -11.875l-2.375 0l0 -2.140625l2.375 0l0 2.140625zm0 11.875l-2.375 0l0 -9.84375l2.375 0l0 9.84375zm14.016968 -9.84375q-0.390625 1.25 -0.9375 2.46875q-0.53125 1.203125 -1.234375 2.296875q-0.6875 1.09375 -1.5625 2.03125q-0.859375 0.9375 -1.90625 1.625q-1.03125 0.671875 -2.265625 1.0625q-1.21875 0.375 -2.640625 0.375q-0.25 0 -0.46875 -0.078125q-0.21875 -0.09375 -0.390625 -0.25q-0.15625 -0.171875 -0.25 -0.375q-0.09375 -0.21875 -0.09375 -0.46875l0 -8.6875l2.375 0l0 7.40625q0.859375 0 1.65625 -0.375q0.796875 -0.375 1.5 -0.984375q0.71875 -0.625 1.328125 -1.40625q0.609375 -0.78125 1.078125 -1.609375q0.46875 -0.828125 0.796875 -1.609375q0.34375 -0.796875 0.5 -1.421875l2.515625 0zm11.442139 3.25q0 0.5 -0.171875 1.078125q-0.171875 0.5625 -0.5625 1.046875q-0.390625 0.484375 -1.015625 0.8125q-0.609375 0.328125 -1.515625 0.328125l-4.265625 0l0 -2.25l4.265625 0q0.484375 0 0.75 -0.296875q0.265625 -0.296875 0.265625 -0.734375q0 -0.453125 -0.296875 -0.71875q-0.296875 -0.265625 -0.71875 -0.265625l-4.265625 0q-0.484375 0 -0.75 0.296875q-0.265625 0.296875 -0.265625 0.734375l0 3.296875q0 0.484375 0.296875 0.75q0.296875 0.25 0.734375 0.25l4.25 0l0 2.265625l-4.265625 0q-0.484375 0 -1.0625 -0.171875q-0.5625 -0.171875 -1.0625 -0.5625q-0.484375 -0.390625 -0.8125 -1.015625q-0.328125 -0.625 -0.328125 -1.515625l0 -3.328125q0 -0.484375 0.171875 -1.046875q0.171875 -0.578125 0.5625 -1.0625q0.390625 -0.484375 1.015625 -0.8125q0.625 -0.328125 1.515625 -0.328125l4.265625 0q0.5 0 1.0625 0.171875q0.578125 0.171875 1.0625 0.5625q0.484375 0.375 0.8125 1.0q0.328125 0.625 0.328125 1.515625zm10.219788 -0.890625l-5.328125 0q-0.484375 0 -0.734375 0.25q-0.25 0.234375 -0.25 0.703125l0 6.53125l-2.359375 0l0 -6.53125q0 -0.609375 0.140625 -1.09375q0.15625 -0.484375 0.421875 -0.84375q0.265625 -0.375 0.59375 -0.625q0.34375 -0.265625 0.703125 -0.421875q0.375 -0.171875 0.75 -0.25q0.375 -0.078125 0.703125 -0.078125l5.359375 0l0 2.359375zm11.065918 4.15625q0 0.609375 -0.15625 1.109375q-0.140625 0.484375 -0.40625 0.859375q-0.25 0.359375 -0.59375 0.625q-0.328125 0.25 -0.703125 0.421875q-0.359375 0.15625 -0.75 0.234375q-0.375 0.078125 -0.703125 0.078125l-6.421875 0l0 -2.375l6.390625 0q0.484375 0 0.734375 -0.234375q0.25 -0.25 0.25 -0.71875q-0.046875 -0.9375 -0.953125 -0.9375l-3.671875 0q-0.796875 0 -1.34375 -0.265625q-0.53125 -0.28125 -0.875 -0.6875q-0.34375 -0.421875 -0.5 -0.890625q-0.140625 -0.484375 -0.140625 -0.890625q0 -0.78125 0.28125 -1.328125q0.28125 -0.546875 0.703125 -0.875q0.4375 -0.34375 0.9375 -0.484375q0.5 -0.15625 0.9375 -0.15625l5.8125 0l0 2.359375l-5.796875 0q-0.1875 0 -0.296875 0.046875q-0.09375 0.046875 -0.15625 0.109375q-0.046875 0.0625 -0.0625 0.140625q0 0.078125 0 0.15625q0.015625 0.140625 0.0625 0.234375q0.046875 0.078125 0.109375 0.109375q0.0625 0.03125 0.140625 0.046875q0.09375 0 0.1875 0l3.671875 0q0.90625 0 1.53125 0.328125q0.640625 0.328125 1.03125 0.828125q0.40625 0.5 0.578125 1.078125q0.171875 0.578125 0.171875 1.078125zm4.067993 -8.546875l-2.375 0l0 -2.140625l2.375 0l0 2.140625zm0 11.875l-2.375 0l0 -9.84375l2.375 0l0 9.84375zm11.220032 -7.484375l-4.125 0l0 7.484375l-2.40625 0l0 -7.484375l-3.078125 0l0 -2.359375l3.078125 0l0 -3.21875l2.40625 0l0 3.21875l4.125 0l0 2.359375zm12.41864 8.4375q0 0.609375 -0.15625 1.09375q-0.15625 0.484375 -0.40625 0.84375q-0.25 0.375 -0.59375 0.640625q-0.34375 0.265625 -0.71875 0.421875q-0.359375 0.171875 -0.734375 0.234375q-0.375 0.078125 -0.703125 0.078125l-4.28125 0l0 -2.359375l4.28125 0q0.46875 0 0.703125 -0.25q0.234375 -0.25 0.234375 -0.703125l0 -10.796875l2.375 0l0 10.796875zm-3.3125 -0.953125l-4.28125 0q-0.5 0 -1.078125 -0.171875q-0.578125 -0.171875 -1.078125 -0.5625q-0.5 -0.40625 -0.828125 -1.03125q-0.328125 -0.640625 -0.328125 -1.5625l0 -6.515625l2.359375 0l0 6.515625q0 0.46875 0.25 0.71875q0.25 0.234375 0.734375 0.234375l4.25 0l0 2.375zm22.356445 -3.328125q0 0.609375 -0.15625 1.109375q-0.15625 0.484375 -0.421875 0.859375q-0.25 0.359375 -0.59375 0.625q-0.328125 0.25 -0.703125 0.421875q-0.359375 0.15625 -0.734375 0.234375q-0.375 0.078125 -0.71875 0.078125l-4.265625 0q-0.5 0 -1.09375 -0.171875q-0.578125 -0.171875 -1.078125 -0.5625q-0.484375 -0.40625 -0.828125 -1.03125q-0.328125 -0.640625 -0.328125 -1.5625l0 -3.203125q0 -0.90625 0.328125 -1.53125q0.34375 -0.640625 0.828125 -1.03125q0.5 -0.40625 1.078125 -0.578125q0.59375 -0.171875 1.09375 -0.171875l4.265625 0q0.90625 0 1.546875 0.328125q0.640625 0.328125 1.03125 0.828125q0.390625 0.484375 0.5625 1.078125q0.1875 0.578125 0.1875 1.078125l0 3.203125zm-2.375 -3.1875q0 -0.484375 -0.25 -0.71875q-0.234375 -0.25 -0.703125 -0.25l-4.25 0q-0.484375 0 -0.734375 0.25q-0.234375 0.234375 -0.234375 0.703125l0 3.203125q0 0.46875 0.234375 0.71875q0.25 0.234375 0.734375 0.234375l4.25 0q0.484375 0 0.71875 -0.234375q0.234375 -0.25 0.234375 -0.71875l0 -3.1875zm13.101013 -0.96875l-5.359375 0l0 -2.359375l5.359375 0l0 2.359375zm0 -4.265625l-5.34375 0q-0.46875 0 -0.71875 0.25q-0.25 0.234375 -0.25 0.703125l0 10.796875l-2.375 0l0 -10.796875q0 -0.625 0.15625 -1.09375q0.15625 -0.484375 0.421875 -0.859375q0.265625 -0.375 0.59375 -0.625q0.34375 -0.265625 0.703125 -0.421875q0.375 -0.171875 0.75 -0.25q0.375 -0.078125 0.703125 -0.078125l5.359375 0l0 2.375zm19.4375 11.75l-8.546875 0q-0.328125 0 -0.71875 -0.078125q-0.375 -0.078125 -0.75 -0.234375q-0.359375 -0.171875 -0.703125 -0.421875q-0.328125 -0.265625 -0.59375 -0.625q-0.25 -0.375 -0.40625 -0.859375q-0.15625 -0.5 -0.15625 -1.109375l0 -6.40625q0 -0.328125 0.078125 -0.703125q0.078125 -0.390625 0.234375 -0.75q0.171875 -0.375 0.4375 -0.703125q0.265625 -0.34375 0.625 -0.59375q0.375 -0.265625 0.859375 -0.421875q0.484375 -0.15625 1.09375 -0.15625l8.546875 0l0 2.375l-8.546875 0q-0.46875 0 -0.71875 0.25q-0.234375 0.234375 -0.234375 0.71875l0 6.390625q0 0.453125 0.25 0.703125q0.25 0.25 0.703125 0.25l8.546875 0l0 2.375zm12.569031 -3.328125q0 0.609375 -0.15625 1.109375q-0.15625 0.484375 -0.421875 0.859375q-0.25 0.359375 -0.59375 0.625q-0.328125 0.25 -0.703125 0.421875q-0.359375 0.15625 -0.734375 0.234375q-0.375 0.078125 -0.71875 0.078125l-4.265625 0q-0.5 0 -1.09375 -0.171875q-0.578125 -0.171875 -1.078125 -0.5625q-0.484375 -0.40625 -0.828125 -1.03125q-0.328125 -0.640625 -0.328125 -1.5625l0 -3.203125q0 -0.90625 0.328125 -1.53125q0.34375 -0.640625 0.828125 -1.03125q0.5 -0.40625 1.078125 -0.578125q0.59375 -0.171875 1.09375 -0.171875l4.265625 0q0.90625 0 1.546875 0.328125q0.640625 0.328125 1.03125 0.828125q0.390625 0.484375 0.5625 1.078125q0.1875 0.578125 0.1875 1.078125l0 3.203125zm-2.375 -3.1875q0 -0.484375 -0.25 -0.71875q-0.234375 -0.25 -0.703125 -0.25l-4.25 0q-0.484375 0 -0.734375 0.25q-0.234375 0.234375 -0.234375 0.703125l0 3.203125q0 0.46875 0.234375 0.71875q0.25 0.234375 0.734375 0.234375l4.25 0q0.484375 0 0.71875 -0.234375q0.234375 -0.25 0.234375 -0.71875l0 -3.1875zm8.710327 6.515625l-1.0625 0q-0.5 0 -1.078125 -0.171875q-0.578125 -0.171875 -1.078125 -0.5625q-0.5 -0.40625 -0.828125 -1.03125q-0.328125 -0.640625 -0.328125 -1.5625l0 -10.6875l2.359375 0l0 10.6875q0 0.4375 0.265625 0.703125q0.28125 0.25 0.6875 0.25l1.0625 0l0 2.375zm12.238953 -3.328125q0 0.609375 -0.15625 1.109375q-0.15625 0.484375 -0.421875 0.859375q-0.25 0.359375 -0.59375 0.625q-0.328125 0.25 -0.703125 0.421875q-0.359375 0.15625 -0.734375 0.234375q-0.375 0.078125 -0.71875 0.078125l-4.265625 0q-0.5 0 -1.09375 -0.171875q-0.578125 -0.171875 -1.078125 -0.5625q-0.484375 -0.40625 -0.828125 -1.03125q-0.328125 -0.640625 -0.328125 -1.5625l0 -3.203125q0 -0.90625 0.328125 -1.53125q0.34375 -0.640625 0.828125 -1.03125q0.5 -0.40625 1.078125 -0.578125q0.59375 -0.171875 1.09375 -0.171875l4.265625 0q0.90625 0 1.546875 0.328125q0.640625 0.328125 1.03125 0.828125q0.390625 0.484375 0.5625 1.078125q0.1875 0.578125 0.1875 1.078125l0 3.203125zm-2.375 -3.1875q0 -0.484375 -0.25 -0.71875q-0.234375 -0.25 -0.703125 -0.25l-4.25 0q-0.484375 0 -0.734375 0.25q-0.234375 0.234375 -0.234375 0.703125l0 3.203125q0 0.46875 0.234375 0.71875q0.25 0.234375 0.734375 0.234375l4.25 0q0.484375 0 0.71875 -0.234375q0.234375 -0.25 0.234375 -0.71875l0 -3.1875zm13.007202 -0.96875l-5.328125 0q-0.484375 0 -0.734375 0.25q-0.25 0.234375 -0.25 0.703125l0 6.53125l-2.359375 0l0 -6.53125q0 -0.609375 0.140625 -1.09375q0.15625 -0.484375 0.421875 -0.84375q0.265625 -0.375 0.59375 -0.625q0.34375 -0.265625 0.703125 -0.421875q0.375 -0.171875 0.75 -0.25q0.375 -0.078125 0.703125 -0.078125l5.359375 0l0 2.359375zm10.956543 4.21875q0 0.5 -0.171875 1.078125q-0.171875 0.5625 -0.5625 1.046875q-0.390625 0.484375 -1.015625 0.8125q-0.625 0.328125 -1.515625 0.328125l-4.265625 0q-0.5 0 -1.078125 -0.171875q-0.5625 -0.171875 -1.046875 -0.5625q-0.484375 -0.390625 -0.8125 -1.015625q-0.328125 -0.625 -0.328125 -1.515625q0 -0.484375 0.171875 -1.0625q0.171875 -0.578125 0.5625 -1.0625q0.390625 -0.484375 1.0 -0.8125q0.625 -0.328125 1.53125 -0.328125l4.265625 0l0 2.265625l-4.265625 0q-0.484375 0 -0.75 0.296875q-0.265625 0.28125 -0.265625 0.71875q0 0.46875 0.296875 0.734375q0.3125 0.25 0.734375 0.25l4.25 0q0.484375 0 0.75 -0.28125q0.265625 -0.296875 0.265625 -0.734375l0 -3.3125q0 -0.453125 -0.296875 -0.71875q-0.28125 -0.28125 -0.71875 -0.28125l-5.203125 0l0 -2.25l5.203125 0q0.5 0 1.0625 0.171875q0.5625 0.171875 1.046875 0.5625q0.5 0.375 0.828125 1.0q0.328125 0.625 0.328125 1.515625l0 3.328125zm12.829163 -0.0625q0 0.609375 -0.15625 1.109375q-0.15625 0.484375 -0.421875 0.859375q-0.25 0.359375 -0.59375 0.625q-0.328125 0.25 -0.703125 0.421875q-0.359375 0.15625 -0.75 0.234375q-0.375 0.078125 -0.703125 0.078125l-4.28125 0q-0.609375 0 -1.09375 -0.15625q-0.484375 -0.15625 -0.859375 -0.40625q-0.359375 -0.265625 -0.625 -0.59375q-0.25 -0.34375 -0.421875 -0.703125q-0.15625 -0.375 -0.234375 -0.75q-0.078125 -0.390625 -0.078125 -0.71875l0 -3.203125q0 -0.90625 0.328125 -1.53125q0.34375 -0.640625 0.828125 -1.03125q0.5 -0.40625 1.078125 -0.578125q0.59375 -0.171875 1.078125 -0.171875l4.28125 0l0 2.359375l-4.25 0q-0.484375 0 -0.734375 0.25q-0.234375 0.234375 -0.234375 0.703125l0 3.1875q0 0.484375 0.234375 0.734375q0.25 0.234375 0.703125 0.234375l4.28125 0q0.484375 0 0.71875 -0.234375q0.234375 -0.25 0.234375 -0.71875l0 -10.6875l2.375 0l0 10.6875zm12.969238 0q0 0.609375 -0.15625 1.109375q-0.15625 0.484375 -0.421875 0.859375q-0.25 0.359375 -0.59375 0.625q-0.328125 0.25 -0.703125 0.421875q-0.359375 0.15625 -0.734375 0.234375q-0.375 0.078125 -0.71875 0.078125l-4.265625 0q-0.5 0 -1.09375 -0.171875q-0.578125 -0.171875 -1.078125 -0.5625q-0.484375 -0.40625 -0.828125 -1.03125q-0.328125 -0.640625 -0.328125 -1.5625l0 -3.203125q0 -0.90625 0.328125 -1.53125q0.34375 -0.640625 0.828125 -1.03125q0.5 -0.40625 1.078125 -0.578125q0.59375 -0.171875 1.09375 -0.171875l4.265625 0q0.90625 0 1.546875 0.328125q0.640625 0.328125 1.03125 0.828125q0.390625 0.484375 0.5625 1.078125q0.1875 0.578125 0.1875 1.078125l0 3.203125zm-2.375 -3.1875q0 -0.484375 -0.25 -0.71875q-0.234375 -0.25 -0.703125 -0.25l-4.25 0q-0.484375 0 -0.734375 0.25q-0.234375 0.234375 -0.234375 0.703125l0 3.203125q0 0.46875 0.234375 0.71875q0.25 0.234375 0.734375 0.234375l4.25 0q0.484375 0 0.71875 -0.234375q0.234375 -0.25 0.234375 -0.71875l0 -3.1875zm23.746033 3.640625q0 0.4375 -0.15625 0.9375q-0.140625 0.5 -0.484375 0.9375q-0.34375 0.421875 -0.890625 0.71875q-0.546875 0.28125 -1.328125 0.28125l-9.0 0q-0.25 0 -0.46875 -0.09375q-0.21875 -0.09375 -0.375 -0.25q-0.15625 -0.15625 -0.25 -0.375q-0.09375 -0.21875 -0.09375 -0.46875l0 -10.6875q0 -0.234375 0.09375 -0.453125q0.09375 -0.21875 0.25 -0.375q0.15625 -0.171875 0.375 -0.265625q0.21875 -0.09375 0.46875 -0.09375l7.921875 0q0.4375 0 0.9375 0.15625q0.515625 0.15625 0.9375 0.5q0.4375 0.34375 0.71875 0.890625q0.296875 0.53125 0.296875 1.328125l0 0.453125q0 0.625 -0.21875 1.359375q-0.203125 0.71875 -0.671875 1.359375q0.40625 0.25 0.75 0.59375q0.359375 0.34375 0.609375 0.796875q0.265625 0.453125 0.421875 1.03125q0.15625 0.578125 0.15625 1.265625l0 0.453125zm-2.359375 -0.453125q0 -0.46875 -0.15625 -0.828125q-0.140625 -0.375 -0.40625 -0.640625q-0.265625 -0.265625 -0.640625 -0.40625q-0.375 -0.140625 -0.828125 -0.140625l-5.34375 0l0 -2.375l4.28125 0q0.453125 0 0.828125 -0.140625q0.375 -0.140625 0.640625 -0.40625q0.265625 -0.265625 0.40625 -0.640625q0.140625 -0.375 0.140625 -0.828125l0 -0.453125q0 -0.5 -0.5 -0.5l-6.75 0l0 8.3125l7.828125 0q0.0625 0 0.140625 0q0.09375 -0.015625 0.171875 -0.0625q0.078125 -0.046875 0.125 -0.15625q0.0625 -0.109375 0.0625 -0.296875l0 -0.4375zm14.875671 0q0 0.609375 -0.15625 1.109375q-0.15625 0.484375 -0.421875 0.859375q-0.25 0.359375 -0.59375 0.625q-0.328125 0.25 -0.703125 0.421875q-0.359375 0.15625 -0.734375 0.234375q-0.375 0.078125 -0.71875 0.078125l-4.265625 0q-0.5 0 -1.09375 -0.171875q-0.578125 -0.171875 -1.078125 -0.5625q-0.484375 -0.40625 -0.828125 -1.03125q-0.328125 -0.640625 -0.328125 -1.5625l0 -3.203125q0 -0.90625 0.328125 -1.53125q0.34375 -0.640625 0.828125 -1.03125q0.5 -0.40625 1.078125 -0.578125q0.59375 -0.171875 1.09375 -0.171875l4.265625 0q0.90625 0 1.546875 0.328125q0.640625 0.328125 1.03125 0.828125q0.390625 0.484375 0.5625 1.078125q0.1875 0.578125 0.1875 1.078125l0 3.203125zm-2.375 -3.1875q0 -0.484375 -0.25 -0.71875q-0.234375 -0.25 -0.703125 -0.25l-4.25 0q-0.484375 0 -0.734375 0.25q-0.234375 0.234375 -0.234375 0.703125l0 3.203125q0 0.46875 0.234375 0.71875q0.25 0.234375 0.734375 0.234375l4.25 0q0.484375 0 0.71875 -0.234375q0.234375 -0.25 0.234375 -0.71875l0 -3.1875zm15.147827 5.328125q0 0.25 -0.09375 0.46875q-0.078125 0.21875 -0.25 0.375q-0.15625 0.15625 -0.375 0.25q-0.203125 0.09375 -0.453125 0.09375l-5.359375 0q-0.4375 0 -0.9375 -0.09375q-0.484375 -0.109375 -0.96875 -0.328125q-0.484375 -0.21875 -0.9375 -0.5625q-0.453125 -0.34375 -0.796875 -0.828125q-0.328125 -0.5 -0.53125 -1.125q-0.203125 -0.640625 -0.203125 -1.4375l0 -5.46875l2.359375 0l0 5.46875q0 0.453125 0.15625 0.828125q0.171875 0.375 0.4375 0.640625q0.28125 0.25 0.640625 0.390625q0.375 0.140625 0.796875 0.140625l4.15625 0l0 -7.46875l2.359375 0l0 8.65625zm6.5526733 1.1875l-1.0625 0q-0.5 0 -1.078125 -0.171875q-0.578125 -0.171875 -1.078125 -0.5625q-0.5 -0.40625 -0.828125 -1.03125q-0.328125 -0.640625 -0.328125 -1.5625l0 -10.6875l2.359375 0l0 10.6875q0 0.4375 0.265625 0.703125q0.28125 0.25 0.6875 0.25l1.0625 0l0 2.375zm12.332642 -3.328125q0 0.609375 -0.15625 1.109375q-0.15625 0.484375 -0.421875 0.859375q-0.25 0.359375 -0.59375 0.625q-0.328125 0.25 -0.703125 0.421875q-0.359375 0.15625 -0.75 0.234375q-0.375 0.078125 -0.703125 0.078125l-4.28125 0q-0.609375 0 -1.09375 -0.15625q-0.484375 -0.15625 -0.859375 -0.40625q-0.359375 -0.265625 -0.625 -0.59375q-0.25 -0.34375 -0.421875 -0.703125q-0.15625 -0.375 -0.234375 -0.75q-0.078125 -0.390625 -0.078125 -0.71875l0 -3.203125q0 -0.90625 0.328125 -1.53125q0.34375 -0.640625 0.828125 -1.03125q0.5 -0.40625 1.078125 -0.578125q0.59375 -0.171875 1.078125 -0.171875l4.28125 0l0 2.359375l-4.25 0q-0.484375 0 -0.734375 0.25q-0.234375 0.234375 -0.234375 0.703125l0 3.1875q0 0.484375 0.234375 0.734375q0.25 0.234375 0.703125 0.234375l4.28125 0q0.484375 0 0.71875 -0.234375q0.234375 -0.25 0.234375 -0.71875l0 -10.6875l2.375 0l0 10.6875zm12.844299 -3.265625q0 0.5 -0.171875 1.078125q-0.171875 0.5625 -0.5625 1.046875q-0.390625 0.484375 -1.015625 0.8125q-0.609375 0.328125 -1.515625 0.328125l-4.265625 0l0 -2.25l4.265625 0q0.484375 0 0.75 -0.296875q0.265625 -0.296875 0.265625 -0.734375q0 -0.453125 -0.296875 -0.71875q-0.296875 -0.265625 -0.71875 -0.265625l-4.265625 0q-0.484375 0 -0.75 0.296875q-0.265625 0.296875 -0.265625 0.734375l0 3.296875q0 0.484375 0.296875 0.75q0.296875 0.25 0.734375 0.25l4.25 0l0 2.265625l-4.265625 0q-0.484375 0 -1.0625 -0.171875q-0.5625 -0.171875 -1.0625 -0.5625q-0.484375 -0.390625 -0.8125 -1.015625q-0.328125 -0.625 -0.328125 -1.515625l0 -3.328125q0 -0.484375 0.171875 -1.046875q0.171875 -0.578125 0.5625 -1.0625q0.390625 -0.484375 1.015625 -0.8125q0.625 -0.328125 1.515625 -0.328125l4.265625 0q0.5 0 1.0625 0.171875q0.578125 0.171875 1.0625 0.5625q0.484375 0.375 0.8125 1.0q0.328125 0.625 0.328125 1.515625zm10.219727 -0.890625l-5.328125 0q-0.484375 0 -0.734375 0.25q-0.25 0.234375 -0.25 0.703125l0 6.53125l-2.359375 0l0 -6.53125q0 -0.609375 0.140625 -1.09375q0.15625 -0.484375 0.421875 -0.84375q0.265625 -0.375 0.59375 -0.625q0.34375 -0.265625 0.703125 -0.421875q0.375 -0.171875 0.75 -0.25q0.375 -0.078125 0.703125 -0.078125l5.359375 0l0 2.359375z" fill-rule="nonzero"/></g></svg>