<svg version="1.1" viewBox="0.0 0.0 768.0 768.0" fill="none" stroke="none" stroke-linecap="square" stroke-miterlimit="10" xmlns:xlink="http://www.w3.org/1999/xlink" xmlns="http://www.w3.org/2000/svg"><clipPath id="p.0"><path d="m0 0l768.0 0l0 768.0l-768.0 0l0 -768.0z" clip-rule="nonzero"/></clipPath><g clip-path="url(#p.0)"><path fill="#000000" fill-opacity="0.0" d="m0 0l768.0 0l0 768.0l-768.0 0z" fill-rule="evenodd"/><path fill="#000000" fill-opacity="0.0" d="m84.12336 256.06604l368.97638 0l0 127.11813l-368.97638 0z" fill-rule="evenodd"/><path fill="#ffffff" d="m187.73654 328.8801l-51.375 0l0 -16.375l51.375 0l0 16.375zm7.25 -36.75l-65.125 0l0 73.375l-16.249992 0l0 -81.4375q0 -1.6875 0.625 -3.1875q0.625 -1.5 1.71875 -2.625q1.09375 -1.125 2.59375 -1.75q1.5 -0.625 3.25 -0.625l73.18749 0l0 16.25zm68.0 22.0625l-36.5625 0q-3.3125 0 -5.0 1.65625q-1.6875 1.65625 -1.6875 4.84375l0 44.8125l-16.25 0l0 -44.8125q0 -4.1875 1.0625 -7.5q1.0625 -3.3125 2.84375 -5.84375q1.78125 -2.53125 4.09375 -4.3125q2.3125 -1.78125 4.84375 -2.90625q2.53125 -1.125 5.125 -1.65625q2.59375 -0.53125 4.84375 -0.53125l36.6875 0l0 16.25zm83.125 6.125q0 3.375 -1.1875 7.28125q-1.1875 3.90625 -3.84375 7.25q-2.65625 3.34375 -6.9375 5.59375q-4.28125 2.25 -10.40625 2.25l-29.3125 0l0 -15.4375l29.3125 0q3.3125 0 5.125 -2.03125q1.8125 -2.03125 1.8125 -5.03125q0 -3.1875 -2.03125 -5.0q-2.03125 -1.8125 -4.90625 -1.8125l-29.3125 0q-3.3125 0 -5.125 2.03125q-1.8125 2.03125 -1.8125 5.03125l0 22.6875q0 3.25 2.03125 5.0625q2.03125 1.8125 5.03125 1.8125l29.1875 0l0 15.5l-29.3125 0q-3.375 0 -7.28125 -1.1875q-3.90625 -1.1875 -7.25 -3.84375q-3.34375 -2.65625 -5.59375 -6.9375q-2.25 -4.28125 -2.25 -10.40625l0 -22.8125q0 -3.375 1.1875 -7.28125q1.1875 -3.90625 3.84375 -7.25q2.65625 -3.34375 6.9375 -5.59375q4.28125 -2.25 10.40625 -2.25l29.3125 0q3.375 0 7.28125 1.1875q3.90625 1.1875 7.25 3.84375q3.34375 2.65625 5.59375 6.9375q2.25 4.28125 2.25 10.40625zm83.625 0q0 3.375 -1.1875 7.28125q-1.1875 3.90625 -3.84375 7.25q-2.65625 3.34375 -6.9375 5.59375q-4.28125 2.25 -10.40625 2.25l-29.3125 0l0 -15.4375l29.3125 0q3.3125 0 5.125 -2.03125q1.8125 -2.03125 1.8125 -5.03125q0 -3.1875 -2.03125 -5.0q-2.03125 -1.8125 -4.90625 -1.8125l-29.3125 0q-3.3125 0 -5.125 2.03125q-1.8125 2.03125 -1.8125 5.03125l0 22.6875q0 3.25 2.03125 5.0625q2.03125 1.8125 5.03125 1.8125l29.1875 0l0 15.5l-29.3125 0q-3.375 0 -7.28125 -1.1875q-3.90625 -1.1875 -7.25 -3.84375q-3.34375 -2.65625 -5.59375 -6.9375q-2.25 -4.28125 -2.25 -10.40625l0 -22.8125q0 -3.375 1.1875 -7.28125q1.1875 -3.90625 3.84375 -7.25q2.65625 -3.34375 6.9375 -5.59375q4.28125 -2.25 10.40625 -2.25l29.3125 0q3.375 0 7.28125 1.1875q3.90625 1.1875 7.25 3.84375q3.34375 2.65625 5.59375 6.9375q2.25 4.28125 2.25 10.40625z" fill-rule="nonzero"/><path fill="#000000" fill-opacity="0.0" d="m84.12336 335.71173l387.21262 0l0 176.22046l-387.21262 0z" fill-rule="evenodd"/><path fill="#ffffff" d="m201.4484 432.20197q0 8.1875 -2.84375 15.0625q-2.84375 6.875 -7.84375 11.84375q-5.0 4.96875 -11.875 7.78125q-6.875 2.8125 -14.9375 2.8125l-43.874992 0q-1.75 0 -3.25 -0.625q-1.5 -0.625 -2.59375 -1.71875q-1.09375 -1.09375 -1.71875 -2.59375q-0.625 -1.5 -0.625 -3.25l0 -73.25q0 -1.6875 0.625 -3.1875q0.625 -1.5 1.71875 -2.625q1.09375 -1.125 2.59375 -1.75q1.5 -0.625 3.25 -0.625l43.874992 0q8.0625 0 14.9375 2.8125q6.875 2.8125 11.875 7.78125q5.0 4.96875 7.84375 11.875q2.84375 6.90625 2.84375 15.03125l0 14.625zm-16.25 -14.625q0 -4.75 -1.53125 -8.6875q-1.53125 -3.9375 -4.34375 -6.71875q-2.8125 -2.78125 -6.71875 -4.3125q-3.90625 -1.53125 -8.65625 -1.53125l-35.8125 0l0 57.125l35.8125 0q4.75 0 8.65625 -1.53125q3.90625 -1.53125 6.71875 -4.3125q2.8125 -2.78125 4.34375 -6.6875q1.53125 -3.90625 1.53125 -8.71875l0 -14.625zm89.1875 0.8125l-36.5625 0q-3.3125 0 -5.0 1.65625q-1.6875 1.65625 -1.6875 4.84375l0 44.8125l-16.25 0l0 -44.8125q0 -4.1875 1.0625 -7.5q1.0625 -3.3125 2.84375 -5.84375q1.78125 -2.53125 4.09375 -4.3125q2.3125 -1.78125 4.84375 -2.90625q2.53125 -1.125 5.125 -1.65625q2.59375 -0.53125 4.84375 -0.53125l36.6875 0l0 16.25zm83.9375 28.5q0 4.1875 -1.0625 7.53125q-1.0625 3.34375 -2.8125 5.875q-1.75 2.53125 -4.0625 4.3125q-2.3125 1.78125 -4.84375 2.90625q-2.53125 1.125 -5.125 1.65625q-2.59375 0.53125 -4.90625 0.53125l-29.3125 0q-3.375 0 -7.375 -1.1875q-4.0 -1.1875 -7.40625 -3.90625q-3.40625 -2.71875 -5.6875 -7.0625q-2.28125 -4.34375 -2.28125 -10.65625l0 -22.0q0 -6.25 2.28125 -10.59375q2.28125 -4.34375 5.6875 -7.0625q3.40625 -2.71875 7.40625 -3.90625q4.0 -1.1875 7.375 -1.1875l29.3125 0q6.25 0 10.625 2.25q4.375 2.25 7.0625 5.65625q2.6875 3.40625 3.90625 7.40625q1.21875 4.0 1.21875 7.4375l0 22.0zm-16.25 -21.875q0 -3.375 -1.6875 -5.0q-1.6875 -1.625 -4.875 -1.625l-29.1875 0q-3.25 0 -4.9375 1.65625q-1.6875 1.65625 -1.6875 4.84375l0 22.0q0 3.1875 1.6875 4.875q1.6875 1.6875 4.9375 1.6875l29.1875 0q3.3125 0 4.9375 -1.6875q1.625 -1.6875 1.625 -4.875l0 -21.875zm104.5625 21.875q0 4.1875 -1.0625 7.53125q-1.0625 3.34375 -2.8125 5.875q-1.75 2.53125 -4.0625 4.3125q-2.3125 1.78125 -4.84375 2.90625q-2.53125 1.125 -5.09375 1.65625q-2.5625 0.53125 -4.875 0.53125l-29.3125 0l0 -16.25l29.3125 0q3.25 0 4.875 -1.6875q1.625 -1.6875 1.625 -4.875l0 -21.875q0 -3.375 -1.65625 -5.0q-1.65625 -1.625 -4.84375 -1.625l-29.1875 0q-3.3125 0 -5.0 1.65625q-1.6875 1.65625 -1.6875 4.84375l0 65.9375l-16.25 0l0 -65.9375q0 -4.1875 1.0625 -7.5q1.0625 -3.3125 2.84375 -5.84375q1.78125 -2.53125 4.09375 -4.3125q2.3125 -1.78125 4.84375 -2.90625q2.53125 -1.125 5.125 -1.65625q2.59375 -0.53125 4.84375 -0.53125l29.3125 0q4.1875 0 7.5 1.0625q3.3125 1.0625 5.84375 2.8125q2.53125 1.75 4.3125 4.0625q1.78125 2.3125 2.90625 4.84375q1.125 2.53125 1.65625 5.09375q0.53125 2.5625 0.53125 4.875l0 22.0z" fill-rule="nonzero"/><path fill="#000000" fill-opacity="0.0" d="m669.82153 265.4134l0 0c-7.762451 0 -14.055115 6.292694 -14.055115 14.055115l14.055115 0c-3.8812256 0 -7.027588 3.1463318 -7.027588 7.0275574c0 3.8812256 3.1463623 7.0275574 7.027588 7.0275574l-14.055115 0l0 201.99213l0 0c0 7.7624207 -6.2927246 14.055115 -14.055115 14.055115l-168.66144 0c-7.7624207 0 -14.055115 -6.292694 -14.055115 -14.055115c0 -7.7624207 6.292694 -14.055115 14.055115 -14.055115l14.055115 0l0 -201.99213c0 -7.7624207 6.292694 -14.055115 14.055115 -14.055115zm-42.165344 230.10236l0 0c0 -7.7624207 6.2926636 -14.055115 14.055115 -14.055115c3.8812256 0 7.027527 3.1463318 7.027527 7.0275574c0 3.8812256 -3.1463013 7.0275574 -7.027527 7.0275574z" fill-rule="evenodd"/><path fill="#000000" fill-opacity="0.0" d="m627.6562 495.51575l0 0c0 -7.7624207 6.2926636 -14.055115 14.055115 -14.055115c3.8812256 0 7.027527 3.1463318 7.027527 7.0275574c0 3.8812256 -3.1463013 7.0275574 -7.027527 7.0275574zm28.11023 -216.04724c0 -7.7624207 6.2926636 -14.055115 14.055115 -14.055115c7.76239 0 14.055115 6.292694 14.055115 14.055115c0 7.7624207 -6.2927246 14.055115 -14.055115 14.055115l0 0c-3.8812256 0 -7.027588 -3.1463318 -7.027588 -7.0275574c0 -3.8812256 3.1463623 -7.0275574 7.027588 -7.0275574z" fill-rule="evenodd"/><path fill="#000000" fill-opacity="0.0" d="m655.7664 293.52362l0 201.99213l0 0c0 7.7624207 -6.2927246 14.055115 -14.055115 14.055115l-168.66144 0c-7.7624207 0 -14.055115 -6.292694 -14.055115 -14.055115c0 -7.7624207 6.292694 -14.055115 14.055115 -14.055115l14.055115 0l0 -201.99213c0 -7.7624207 6.292694 -14.055115 14.055115 -14.055115l168.66144 0l0 0c7.76239 0 14.055115 6.292694 14.055115 14.055115c0 7.7624207 -6.2927246 14.055115 -14.055115 14.055115zm-14.055115 216.04724l0 0c-7.762451 0 -14.055115 -6.292694 -14.055115 -14.055115c0 -7.7624207 6.2926636 -14.055115 14.055115 -14.055115c3.8812256 0 7.027527 3.1463318 7.027527 7.0275574c0 3.8812256 -3.1463013 7.0275574 -7.027527 7.0275574l-14.055115 0m-140.55121 -14.055115l154.60632 0m28.11023 -187.93701l0 0c-3.8812256 0 -7.027588 -3.1463318 -7.027588 -7.0275574c0 -3.8812256 3.1463623 -7.0275574 7.027588 -7.0275574l-14.055115 0m14.055115 -14.055115l0 0c-7.762451 0 -14.055115 6.292694 -14.055115 14.055115l0 14.055115" fill-rule="evenodd"/><path fill="#000000" fill-opacity="0.2" d="m627.6562 495.51575l0 0c0 -7.7624207 6.2926636 -14.055115 14.055115 -14.055115c3.8812256 0 7.027527 3.1463318 7.027527 7.0275574c0 3.8812256 -3.1463013 7.0275574 -7.027527 7.0275574zm28.11023 -216.04724c0 -7.7624207 6.2926636 -14.055115 14.055115 -14.055115c7.76239 0 14.055115 6.292694 14.055115 14.055115c0 7.7624207 -6.2927246 14.055115 -14.055115 14.055115l0 0c-3.8812256 0 -7.027588 -3.1463318 -7.027588 -7.0275574c0 -3.8812256 3.1463623 -7.0275574 7.027588 -7.0275574z" fill-rule="evenodd"/><path stroke="#ffffff" stroke-width="3.0" stroke-linejoin="round" stroke-linecap="butt" d="m655.7664 293.52362l0 201.99213l0 0c0 7.7624207 -6.2927246 14.055115 -14.055115 14.055115l-168.66144 0c-7.7624207 0 -14.055115 -6.292694 -14.055115 -14.055115c0 -7.7624207 6.292694 -14.055115 14.055115 -14.055115l14.055115 0l0 -201.99213c0 -7.7624207 6.292694 -14.055115 14.055115 -14.055115l168.66144 0l0 0c7.76239 0 14.055115 6.292694 14.055115 14.055115c0 7.7624207 -6.2927246 14.055115 -14.055115 14.055115zm-14.055115 216.04724l0 0c-7.762451 0 -14.055115 -6.292694 -14.055115 -14.055115c0 -7.7624207 6.2926636 -14.055115 14.055115 -14.055115c3.8812256 0 7.027527 3.1463318 7.027527 7.0275574c0 3.8812256 -3.1463013 7.0275574 -7.027527 7.0275574l-14.055115 0m-140.55121 -14.055115l154.60632 0m28.11023 -187.93701l0 0c-3.8812256 0 -7.027588 -3.1463318 -7.027588 -7.0275574c0 -3.8812256 3.1463623 -7.0275574 7.027588 -7.0275574l-14.055115 0m14.055115 -14.055115l0 0c-7.762451 0 -14.055115 6.292694 -14.055115 14.055115l0 14.055115" fill-rule="evenodd"/><path fill="#ffffff" d="m588.0715 310.54462l0 2.3759766l-40.573425 0l0 -2.3759766zm0 4.7519836l0 4.751953l-40.573425 0l0 -4.751953zm0 7.1279297l0 91.449066l17.729065 0l-38.015747 42.497803l-38.015747 -42.497803l17.729004 0l0 -91.449066z" fill-rule="evenodd"/><path stroke="#ffffff" stroke-width="1.0" stroke-linejoin="round" stroke-linecap="butt" d="m588.0715 310.54462l0 2.3759766l-40.573425 0l0 -2.3759766zm0 4.7519836l0 4.751953l-40.573425 0l0 -4.751953zm0 7.1279297l0 91.449066l17.729065 0l-38.015747 42.497803l-38.015747 -42.497803l17.729004 0l0 -91.449066z" fill-rule="evenodd"/><path fill="#000000" fill-opacity="0.0" d="m384.0 46.278214l0 0c185.60425 0 336.30908 150.0014 337.17743 335.60358c0.86834717 185.6022 -148.42633 337.00717 -334.02243 338.74387c-185.5961 1.7366943 -337.6979 -146.84802 -340.3029 -332.43396l337.1479 -4.7323914z" fill-rule="evenodd"/><path fill="#000000" fill-opacity="0.0" d="m384.0 46.278214l0 0c185.60425 0 336.30908 150.0014 337.17743 335.60358c0.86834717 185.6022 -148.42633 337.00717 -334.02243 338.74387c-185.5961 1.7366943 -337.6979 -146.84802 -340.3029 -332.43396" fill-rule="evenodd"/><path stroke="#ffffff" stroke-width="12.0" stroke-linejoin="round" stroke-linecap="butt" d="m384.0 46.278214l0 0c185.60425 0 336.30908 150.0014 337.17743 335.60358c0.86834717 185.6022 -148.42633 337.00717 -334.02243 338.74387c-185.5961 1.7366943 -337.6979 -146.84802 -340.3029 -332.43396" fill-rule="evenodd"/><path fill="#000000" fill-opacity="0.0" d="m24.251968 386.91077l24.292652 -51.199493l24.292652 51.199493z" fill-rule="evenodd"/><path stroke="#ffffff" stroke-width="12.0" stroke-linejoin="round" stroke-linecap="butt" d="m24.251968 386.91077l24.292652 -51.199493l24.292652 51.199493z" fill-rule="evenodd"/></g></svg>